<?xml version="1.0" standalone="no"?>
<!DOCTYPE svg PUBLIC "-//W3C//DTD SVG 20010904//EN"
 "http://www.w3.org/TR/2001/REC-SVG-20010904/DTD/svg10.dtd">
<svg version="1.0" xmlns="http://www.w3.org/2000/svg"
 width="204.000000pt" height="204.000000pt" viewBox="0 0 204.000000 204.000000"
 preserveAspectRatio="xMidYMid meet">

<g transform="translate(0.000000,204.000000) scale(0.100000,-0.100000)"
fill="#000000" stroke="none">
<path d="M1380 1480 c8 -5 22 -9 30 -9 10 0 8 3 -5 9 -27 12 -43 12 -25 0z"/>
<path d="M1457 1439 c22 -24 33 -29 55 -25 20 4 35 -2 59 -21 28 -24 30 -24
18 -5 -16 25 -41 36 -84 37 -21 0 -33 7 -40 23 -5 12 -15 22 -22 22 -8 0 -1
-14 14 -31z"/>
<path d="M235 1368 c-27 -16 -35 -28 -35 -62 0 -25 3 -28 26 -22 40 11 54 -9
54 -76 0 -56 25 -127 49 -143 6 -3 -1 14 -14 37 -19 33 -25 58 -25 104 0 68
-22 101 -60 91 -15 -4 -20 0 -20 14 0 33 36 59 83 59 36 0 44 -4 59 -30 15
-27 22 -30 60 -28 l43 1 -43 4 c-35 3 -45 9 -57 34 -14 25 -21 29 -58 29 -23
0 -51 -6 -62 -12z"/>
<path d="M1623 1373 c9 -2 23 -2 30 0 6 3 -1 5 -18 5 -16 0 -22 -2 -12 -5z"/>
<path d="M1745 1333 c98 -46 94 -42 71 -58 -16 -12 -22 -11 -46 7 -34 25 -56
19 -71 -18 -13 -35 -5 -54 22 -54 12 0 19 -5 16 -12 -2 -7 -11 -12 -19 -10 -8
1 -23 -7 -33 -18 -11 -12 -13 -20 -6 -20 6 0 14 6 17 14 3 8 12 12 21 9 15 -6
33 12 33 35 0 6 -11 12 -25 12 -28 0 -30 6 -15 44 12 31 33 33 61 5 19 -19 22
-19 45 -4 13 8 24 19 24 24 0 10 -142 81 -161 81 -8 0 22 -17 66 -37z"/>
<path d="M470 1330 c-11 -7 -3 -8 27 -4 30 5 48 2 64 -10 13 -9 28 -16 34 -16
5 0 -5 9 -23 20 -35 22 -78 26 -102 10z"/>
<path d="M615 1291 c3 -6 -3 -15 -14 -21 -35 -18 -45 -48 -26 -76 8 -13 21
-24 28 -23 9 0 9 2 -1 6 -18 7 -33 39 -26 58 4 8 20 23 36 31 26 14 31 34 7
34 -6 0 -8 -4 -4 -9z"/>
<path d="M1385 1150 c10 -11 20 -20 23 -20 3 0 -3 9 -13 20 -10 11 -20 20 -23
20 -3 0 3 -9 13 -20z"/>
<path d="M1666 1105 c5 -42 -8 -64 -46 -78 -12 -4 -12 -6 2 -6 21 -1 58 37 57
58 -1 9 -5 27 -10 41 -6 19 -7 15 -3 -15z"/>
<path d="M1721 1124 c0 -11 3 -14 6 -6 3 7 2 16 -1 19 -3 4 -6 -2 -5 -13z"/>
<path d="M1416 1090 c8 -41 27 -82 46 -97 10 -9 13 -3 13 32 0 24 -3 41 -7 38
-5 -2 -8 -16 -8 -31 l-1 -27 -14 25 c-8 14 -15 34 -15 45 0 11 -5 27 -10 35
-7 11 -8 5 -4 -20z"/>
<path d="M1509 1066 c14 -15 26 -26 28 -26 9 0 -24 40 -37 45 -8 4 -4 -5 9
-19z"/>
<path d="M630 1049 c-16 -16 -32 -39 -35 -49 -5 -16 -10 -17 -31 -10 -15 6
-33 6 -49 0 -21 -8 -25 -16 -25 -51 l0 -41 -40 43 c-22 24 -40 48 -40 55 0 6
-9 22 -21 35 l-21 24 16 -27 c9 -15 16 -33 16 -40 0 -12 45 -60 123 -132 26
-24 39 -22 15 3 -11 10 -7 11 17 7 17 -3 10 1 -15 9 l-45 15 3 44 c3 35 8 45
25 50 28 7 55 -9 60 -36 4 -21 4 -20 6 3 1 27 42 95 70 116 9 7 12 13 8 13 -5
0 -22 -14 -37 -31z"/>
<path d="M1715 1070 c-3 -5 1 -10 9 -10 9 0 16 5 16 10 0 6 -4 10 -9 10 -6 0
-13 -4 -16 -10z"/>
<path d="M1546 1010 c3 -14 15 -34 25 -45 19 -19 19 -19 19 2 0 12 2 30 5 40
3 10 -1 5 -9 -12 l-14 -30 -16 35 c-10 22 -14 26 -10 10z"/>
<path d="M1552 900 c-2 -30 7 -44 33 -53 19 -7 19 -6 -2 11 -11 10 -23 30 -26
43 l-4 24 -1 -25z"/>
<path d="M1620 877 c0 -14 35 -39 44 -30 7 7 -23 43 -36 43 -4 0 -8 -6 -8 -13z"/>
<path d="M1710 803 c0 -10 6 -13 16 -9 8 3 12 2 9 -4 -3 -5 11 -14 32 -19 45
-13 55 -7 14 7 -17 6 -31 15 -31 20 0 5 -9 12 -20 15 -13 3 -20 0 -20 -10z"/>
<path d="M578 788 c20 -22 21 -26 7 -38 -31 -26 -17 -76 36 -130 28 -28 31
-35 25 -71 -4 -23 -16 -58 -29 -79 -22 -38 -18 -66 6 -40 9 10 9 11 0 6 -18
-10 -16 2 7 38 10 18 22 50 26 72 5 37 3 44 -35 88 -44 50 -53 93 -26 116 21
17 19 25 -12 45 l-28 18 23 -25z"/>
<path d="M630 800 c-18 -12 -2 -12 25 0 13 6 15 9 5 9 -8 0 -22 -4 -30 -9z"/>
<path d="M1665 770 c10 -11 27 -22 39 -26 11 -3 30 -14 41 -23 19 -15 19 -15
6 2 -8 10 -29 24 -48 32 -18 8 -33 19 -33 24 0 6 -5 11 -12 11 -6 0 -3 -8 7
-20z"/>
<path d="M1563 763 c-16 -15 -18 -25 -12 -53 l8 -35 -3 37 c-2 34 1 39 34 52
26 11 30 15 14 15 -12 1 -30 -7 -41 -16z"/>
<path d="M1760 693 c0 -7 5 -15 10 -18 17 -10 11 -61 -9 -86 -16 -21 -22 -22
-45 -11 -14 6 -26 17 -26 24 -1 7 -12 27 -26 43 l-26 30 25 -45 c14 -25 38
-52 52 -60 25 -14 27 -14 51 13 27 32 31 72 9 101 -8 11 -15 15 -15 9z"/>
<path d="M1541 657 c-1 -14 4 -17 22 -12 12 4 27 12 32 17 6 5 -1 5 -17 -1
-19 -7 -28 -7 -32 2 -2 7 -5 4 -5 -6z"/>
<path d="M649 453 c-13 -16 -12 -17 4 -4 16 13 21 21 13 21 -2 0 -10 -8 -17
-17z"/>
</g>
</svg>
